<svg xmlns="http://www.w3.org/2000/svg" viewBox="0 0 120 120">
  <!-- Stems -->
  <g fill="none" stroke="#b5a894" stroke-width="1.2" stroke-linecap="round" opacity="0.7">
    <path d="M18,120 Q16,90 20,68 Q23,52 22,34"/>
    <path d="M0,104 Q35,102 58,96 Q78,90 96,82"/>
    <path d="M20,70 Q32,73 40,68"/>
    <path d="M22,48 Q15,46 11,50"/>
  </g>

  <!-- Leaves -->
  <g opacity="0.6">
    <!-- Along vertical stem -->
    <path d="M20,85 C30,76 34,80 26,90 C20,96 16,92 20,85" fill="#97a882" stroke="#889a74" stroke-width="0.4"/>
    <path d="M13,72 C5,63 3,59 11,65 C17,71 19,76 13,72" fill="#9bac86" stroke="#889a74" stroke-width="0.4"/>
    <path d="M24,56 C33,47 37,51 28,60 C22,64 20,60 24,56" fill="#97a882" stroke="#889a74" stroke-width="0.4"/>
    <path d="M16,44 C9,36 7,32 14,38 C20,44 22,48 16,44" fill="#9bac86" stroke="#889a74" stroke-width="0.4"/>
    <!-- Along horizontal stem -->
    <path d="M38,102 C46,92 52,94 44,104 C38,110 34,106 38,102" fill="#97a882" stroke="#889a74" stroke-width="0.4"/>
    <path d="M62,96 C70,86 76,88 68,98 C62,102 58,100 62,96" fill="#9bac86" stroke="#889a74" stroke-width="0.4"/>
    <!-- Near side bud -->
    <path d="M38,70 C46,62 50,64 42,74 C38,78 34,74 38,70" fill="#97a882" stroke="#889a74" stroke-width="0.4"/>
  </g>

  <!-- Main Rose at corner -->
  <g>
    <!-- Outer petals -->
    <ellipse cx="8" cy="112" rx="16" ry="10" fill="#e8dcd2" transform="rotate(-22 8 112)" opacity="0.74"/>
    <ellipse cx="26" cy="112" rx="16" ry="10" fill="#e4d6cc" transform="rotate(22 26 112)" opacity="0.74"/>
    <ellipse cx="17" cy="118" rx="14" ry="9" fill="#e0d2c8" transform="rotate(4 17 118)" opacity="0.78"/>
    <!-- Mid petals -->
    <ellipse cx="10" cy="104" rx="12" ry="8" fill="#e6d9d0" transform="rotate(-32 10 104)" opacity="0.82"/>
    <ellipse cx="24" cy="104" rx="12" ry="8" fill="#e2d4ca" transform="rotate(32 24 104)" opacity="0.82"/>
    <!-- Inner petals -->
    <ellipse cx="12" cy="107" rx="8.5" ry="5.5" fill="#dac9bc" transform="rotate(-10 12 107)" opacity="0.87"/>
    <ellipse cx="22" cy="107" rx="8.5" ry="5.5" fill="#d6c5b8" transform="rotate(10 22 107)" opacity="0.87"/>
    <!-- Center -->
    <circle cx="17" cy="106" r="5" fill="#d0bfb0" opacity="0.85"/>
    <path d="M17,104 C19.2,104 20,106 18.5,107.5 C17,109 15,108 15,106 C15,105 16,104 17,104" fill="#c8b6a6" opacity="0.9"/>
  </g>

  <!-- Medium Rose on horizontal (~90, 84) -->
  <g>
    <ellipse cx="84" cy="86" rx="11" ry="7.5" fill="#e8dcd2" transform="rotate(-15 84 86)" opacity="0.68"/>
    <ellipse cx="96" cy="85" rx="11" ry="7.5" fill="#e4d6cc" transform="rotate(15 96 85)" opacity="0.68"/>
    <ellipse cx="90" cy="80" rx="9.5" ry="6.5" fill="#e2d4ca" opacity="0.74"/>
    <ellipse cx="90" cy="86" rx="8" ry="5.5" fill="#dac9bc" opacity="0.8"/>
    <circle cx="90" cy="83" r="4.5" fill="#d0bfb0" opacity="0.78"/>
    <path d="M90,82 C91.8,82 92.2,83.5 91,84.5 C89.5,85.5 88.2,85 88.2,83.5 C88.2,82.8 89,82 90,82" fill="#c8b6a6" opacity="0.84"/>
  </g>

  <!-- Small bud upper (~22, 34) -->
  <g>
    <ellipse cx="20" cy="38" rx="6.5" ry="4.5" fill="#e6d9d0" transform="rotate(-8 20 38)" opacity="0.6"/>
    <ellipse cx="25" cy="35" rx="6" ry="4" fill="#e2d4ca" transform="rotate(16 25 35)" opacity="0.6"/>
    <ellipse cx="22.5" cy="36" rx="3.5" ry="3" fill="#dac9bc" opacity="0.72"/>
    <!-- Sepals -->
    <path d="M18,42 C17,47 19.5,45.5 20,42" fill="#97a882" opacity="0.45"/>
    <path d="M26,40 C28,45 26.5,44 25,41" fill="#97a882" opacity="0.45"/>
  </g>

  <!-- Side bud (~40, 68) -->
  <g>
    <ellipse cx="40" cy="70" rx="5.5" ry="4" fill="#e6d9d0" transform="rotate(8 40 70)" opacity="0.55"/>
    <ellipse cx="44" cy="67" rx="5" ry="3.5" fill="#e2d4ca" transform="rotate(22 44 67)" opacity="0.55"/>
    <ellipse cx="42" cy="68" rx="3" ry="2.5" fill="#dac9bc" opacity="0.65"/>
    <path d="M38,73 C37,77 39.5,75.5 40,73" fill="#97a882" opacity="0.4"/>
  </g>

  <!-- Accent bud near top -->
  <path d="M10,52 C8,47 11,45 13.5,48 C15.5,51 12.5,54 10,52" fill="#e4d6cc" opacity="0.45"/>

  <!-- Berry accents -->
  <circle cx="30" cy="62" r="2" fill="#ddd0c6" opacity="0.45"/>
  <circle cx="80" cy="92" r="1.8" fill="#dac9bc" opacity="0.4"/>
  <circle cx="52" cy="98" r="1.8" fill="#d6c5b8" opacity="0.38"/>
</svg>
